<svg fill="#164F86" xmlns:dc="http://purl.org/dc/elements/1.1/" xmlns:cc="http://creativecommons.org/ns#" xmlns:rdf="http://www.w3.org/1999/02/22-rdf-syntax-ns#" xmlns:svg="http://www.w3.org/2000/svg" xmlns="http://www.w3.org/2000/svg" xmlns:sodipodi="http://sodipodi.sourceforge.net/DTD/sodipodi-0.dtd" xmlns:inkscape="http://www.inkscape.org/namespaces/inkscape" viewBox="0 0 32 32.000001" version="1.1" x="0px" y="0px"><g transform="translate(0,-1020.3622)"><path style="" d="m 15.50467,1032.771 -8.5,4.248 2.60156,9.0977 0.63086,-0.3789 a 1.50015,1.50015 0 0 1 1.54101,0 l 1.72852,1.0352 1.72656,-1.0352 a 1.50015,1.50015 0 0 1 0.27149,-0.127 z m 1,0 0,12.8398 a 1.50015,1.50015 0 0 1 0.27148,0.127 l 1.72656,1.0352 1.72852,-1.0352 a 1.50015,1.50015 0 0 1 1.54102,0 l 0.63085,0.3789 2.60157,-9.0977 z" fill="#164F86" fill-rule="evenodd" stroke="none"></path><path style="" d="m 16.00467,1027.521 -6,2.998 0,3.8829 5.55273,-2.7754 c 0.12762,-0.064 0.26748,-0.1 0.41016,-0.1055 0.16775,-0.01 0.33432,0.03 0.48437,0.1055 l 5.55274,2.7754 0,-3.8829 z" fill="#164F86" fill-rule="evenodd" stroke="none"></path><path d="m 5.9805325,1046.521 a 0.50005012,0.50005012 0 0 0 -0.2265625,0.9336 l 2.4980469,1.4961 a 0.50005012,0.50005012 0 0 0 0.5136719,0 l 2.2421872,-1.3438 2.240235,1.3438 a 0.50005012,0.50005012 0 0 0 0.513671,0 l 2.242188,-1.3438 2.242188,1.3438 a 0.50005012,0.50005012 0 0 0 0.513671,0 l 2.240235,-1.3438 2.242187,1.3438 a 0.50005012,0.50005012 0 0 0 0.513672,0 l 2.498047,-1.4961 a 0.50059572,0.50059572 0 1 0 -0.513672,-0.8594 l -2.240234,1.3438 -2.242188,-1.3438 a 0.50005012,0.50005012 0 0 0 -0.513672,0 l -2.242187,1.3438 -2.240235,-1.3438 a 0.50005012,0.50005012 0 0 0 -0.515624,0 l -2.240235,1.3438 -2.242187,-1.3438 a 0.50005012,0.50005012 0 0 0 -0.513672,0 l -2.2421878,1.3438 -2.2402343,-1.3438 a 0.50005012,0.50005012 0 0 0 -0.2871094,-0.074 z" style="color:#000000;font-style:normal;font-variant:normal;font-weight:normal;font-stretch:normal;font-size:medium;line-height:normal;font-family:sans-serif;text-indent:0;text-align:start;text-decoration:none;text-decoration-line:none;text-decoration-style:solid;text-decoration-color:#000000;letter-spacing:normal;word-spacing:normal;text-transform:none;direction:ltr;writing-mode:lr-tb;baseline-shift:baseline;text-anchor:start;white-space:normal;clip-rule:nonzero;display:inline;overflow:visible;visibility:visible;opacity:1;isolation:auto;mix-blend-mode:normal;color-interpolation:sRGB;color-interpolation-filters:linearRGB;solid-color:#000000;solid-opacity:1;fill:#164F86;fill-opacity:1;fill-rule:evenodd;stroke:none;stroke-width:1.00000024;stroke-linecap:round;stroke-linejoin:round;stroke-miterlimit:4;stroke-dasharray:none;stroke-dashoffset:0;stroke-opacity:1;color-rendering:auto;image-rendering:auto;shape-rendering:auto;text-rendering:auto;enable-background:accumulate"></path><path d="m 5.9805325,1049.021 a 0.50005012,0.50005012 0 0 0 -0.2265625,0.9336 l 2.4980469,1.4961 a 0.50005012,0.50005012 0 0 0 0.5136719,0 l 2.2421872,-1.3438 2.240235,1.3438 a 0.50005012,0.50005012 0 0 0 0.513671,0 l 2.242188,-1.3438 2.242188,1.3438 a 0.50005012,0.50005012 0 0 0 0.513671,0 l 2.240235,-1.3438 2.242187,1.3438 a 0.50005012,0.50005012 0 0 0 0.513672,0 l 2.498047,-1.4961 a 0.50059572,0.50059572 0 1 0 -0.513672,-0.8594 l -2.240234,1.3438 -2.242188,-1.3438 a 0.50005012,0.50005012 0 0 0 -0.513672,0 l -2.242187,1.3438 -2.240235,-1.3438 a 0.50005012,0.50005012 0 0 0 -0.515624,0 l -2.240235,1.3438 -2.242187,-1.3438 a 0.50005012,0.50005012 0 0 0 -0.513672,0 l -2.2421878,1.3438 -2.2402343,-1.3438 a 0.50005012,0.50005012 0 0 0 -0.2871094,-0.074 z" style="color:#000000;font-style:normal;font-variant:normal;font-weight:normal;font-stretch:normal;font-size:medium;line-height:normal;font-family:sans-serif;text-indent:0;text-align:start;text-decoration:none;text-decoration-line:none;text-decoration-style:solid;text-decoration-color:#000000;letter-spacing:normal;word-spacing:normal;text-transform:none;direction:ltr;writing-mode:lr-tb;baseline-shift:baseline;text-anchor:start;white-space:normal;clip-rule:nonzero;display:inline;overflow:visible;visibility:visible;opacity:1;isolation:auto;mix-blend-mode:normal;color-interpolation:sRGB;color-interpolation-filters:linearRGB;solid-color:#000000;solid-opacity:1;fill:#164F86;fill-opacity:1;fill-rule:evenodd;stroke:none;stroke-width:1.00000024;stroke-linecap:round;stroke-linejoin:round;stroke-miterlimit:4;stroke-dasharray:none;stroke-dashoffset:0;stroke-opacity:1;color-rendering:auto;image-rendering:auto;shape-rendering:auto;text-rendering:auto;enable-background:accumulate"></path><path style="" d="m 15.50467,1021.2026 0,3.3184 -1.5,0 0,2.8809 c 0.66639,-0.3333 1.33319,-0.6657 2,-0.9981 l 1.99804,0.9981 0.002,-2.8809 -1.5,0 0,-3.3184 z" fill="#164F86" fill-rule="evenodd" stroke="none"></path></g></svg>